<?xml version="1.0" encoding="utf-8"?><!-- Uploaded to: SVG Repo, www.svgrepo.com, Generator: SVG Repo Mixer Tools -->
<svg width="800px" height="800px" viewBox="0 0 24 24" fill="none" xmlns="http://www.w3.org/2000/svg">
<path d="M9.6 4H4.4C3.6268 4 3 4.6268 3 5.4V19.6C3 20.3732 3.6268 21 4.4 21H9.6C10.3732 21 11 20.3732 11 19.6V5.4C11 4.6268 10.3732 4 9.6 4Z" stroke="#1C1C1C" stroke-width="1.7" stroke-linecap="round"/>
<path d="M19.6 4H15.4C14.6268 4 14 4.6268 14 5.4V14.6C14 15.3732 14.6268 16 15.4 16H19.6C20.3732 16 21 15.3732 21 14.6V5.4C21 4.6268 20.3732 4 19.6 4Z" stroke="#DF1463" stroke-width="1.7" stroke-linecap="round"/>
</svg>